<?xml version="1.0" encoding="utf-8"?>
<!-- Generator: Adobe Illustrator 16.0.3, SVG Export Plug-In . SVG Version: 6.00 Build 0)  -->
<!DOCTYPE svg PUBLIC "-//W3C//DTD SVG 1.1//EN" "http://www.w3.org/Graphics/SVG/1.1/DTD/svg11.dtd">
<svg version="1.1" id="Capa_1" xmlns="http://www.w3.org/2000/svg" xmlns:xlink="http://www.w3.org/1999/xlink" x="0px" y="0px"
	 width="612px" height="792px" viewBox="0 0 612 792" enable-background="new 0 0 612 792" xml:space="preserve">
<path fill="#D6D6D6" d="M584.559,476.266c0-3.307-0.965-6.38-2.603-8.983l-44.29-97.346c-16.257-35.731-55.328-58.821-99.532-58.821
	h-39.94v-22.747c0-15.538-12.643-28.18-28.18-28.18H79.28c-0.004,0-0.009,0-0.014,0H24.35c-9.339,0-16.908,7.574-16.908,16.908
	c0,9.339,7.569,16.913,16.908,16.913h38.024v33.815H48.021c-9.339,0-16.908,7.57-16.908,16.908c0,9.334,7.569,16.908,16.908,16.908
	h14.353v32.372H24.35c-9.339,0-16.908,7.568-16.908,16.908c0,9.338,7.569,16.907,16.908,16.907h38.024v133.579
	c0,9.335,7.569,16.908,16.908,16.908h48.032c1.493,29.752,26.172,53.496,56.29,53.496s54.792-23.744,56.289-53.496l186.971,0.563
	c1.778,29.487,26.321,52.933,56.248,52.933c29.924,0,54.467-23.445,56.246-52.933h28.293c9.339,0,16.908-7.573,16.908-16.908
	v-85.304c0-0.067-0.01-0.132-0.01-0.195C584.549,476.401,584.559,476.334,584.559,476.266z"/>
<path fill="#262626" d="M594.559,426.266c0-3.307-0.965-6.38-2.603-8.983l-44.29-97.346c-16.257-35.731-55.328-58.821-99.532-58.821
	h-39.94v-22.747c0-15.538-12.643-28.18-28.18-28.18H89.28c-0.004,0-0.009,0-0.014,0H34.35c-9.339,0-16.908,7.574-16.908,16.908
	c0,9.339,7.569,16.913,16.908,16.913h38.024v33.815H58.021c-9.339,0-16.908,7.57-16.908,16.908c0,9.334,7.569,16.908,16.908,16.908
	h14.353v32.372H34.35c-9.339,0-16.908,7.569-16.908,16.908c0,9.338,7.569,16.908,16.908,16.908h38.024v133.579
	c0,9.335,7.569,16.908,16.908,16.908h48.032c1.493,29.752,26.172,53.496,56.29,53.496s54.792-23.744,56.289-53.496l186.971,0.563
	c1.778,29.487,26.321,52.933,56.248,52.933c29.924,0,54.467-23.445,56.246-52.933h28.293c9.339,0,16.908-7.573,16.908-16.908
	v-85.304c0-0.067-0.01-0.132-0.01-0.195C594.549,426.401,594.559,426.334,594.559,426.266z M525.205,352.223l25.996,57.135h-75.376
	v-45.395c0-6.252,7.903-11.738,16.912-11.738h32.468V352.223z M193.603,547.997c-12.43,0-22.544-10.11-22.544-22.544
	c0-12.432,10.114-22.544,22.544-22.544s22.543,10.112,22.543,22.544C216.146,537.887,206.033,547.997,193.603,547.997z
	 M374.38,494.498H240.667c-10.092-15.292-27.414-25.404-47.064-25.404s-36.973,10.112-47.064,25.404h-40.35V377.827h47.962
	c9.339,0,16.908-7.57,16.908-16.908c0-9.339-7.569-16.908-16.908-16.908h-47.962V311.64h103.393c9.339,0,16.908-7.573,16.908-16.908
	c0-9.338-7.569-16.908-16.908-16.908H106.189v-33.815h27.612c0.004,0,0.008-0.005,0.013-0.005H374.38V494.498z M493.111,547.997
	c-12.434,0-22.548-10.11-22.548-22.544c0-12.432,10.114-22.544,22.548-22.544c12.431,0,22.544,10.112,22.544,22.544
	C515.655,537.887,505.542,547.997,493.111,547.997z M540.537,495.063c-10.034-15.604-27.537-25.969-47.426-25.969
	c-19.888,0-37.39,10.365-47.425,25.969h-37.492V294.931h39.94c23.095,0,44.532,8.986,58.195,23.477h-13.593
	c-27.972,0-50.728,20.435-50.728,45.554v62.301c0,9.339,7.574,16.908,16.908,16.908h101.825v51.892H540.537L540.537,495.063z"/>
</svg>
